<svg width="74" height="87" viewBox="0 0 74 87" fill="none" xmlns="http://www.w3.org/2000/svg">
    <path d="M45.4166 10.987C43.1567 10.987 41.3247 12.819 41.3247 15.0789C41.3247 17.3388 43.1567 19.1708 45.4166 19.1708C47.6765 19.1708 49.5085 17.3388 49.5085 15.0789C49.5085 12.819 47.6765 10.987 45.4166 10.987ZM45.4166 17.1249C44.2866 17.1249 43.3707 16.2089 43.3707 15.0789C43.3763 13.953 44.2907 13.0432 45.4166 13.0432V13.033C46.5466 13.033 47.4625 13.9489 47.4625 15.0789C47.4625 16.2089 46.5466 17.1249 45.4166 17.1249Z" fill="#66F124"/>
    <path d="M28.118 10.987C25.8581 10.987 24.0261 12.819 24.0261 15.0789C24.0261 17.3388 25.8581 19.1708 28.118 19.1708C30.3779 19.1708 32.2099 17.3388 32.2099 15.0789C32.2099 12.819 30.3779 10.987 28.118 10.987ZM28.118 17.1249C26.988 17.1249 26.0721 16.2089 26.0721 15.0789C26.0777 13.953 26.9921 13.0432 28.118 13.0432V13.033C29.248 13.033 30.164 13.9489 30.164 15.0789C30.164 16.2089 29.248 17.1249 28.118 17.1249Z" fill="#66F124"/>
    <path fill-rule="evenodd" clip-rule="evenodd" d="M58.9212 17.2338V7.99006C57.8239 3.93357 54.6652 0.475579 48.3144 0.475579L37.0092 0.392456H25.7211C21.2324 0.392456 16.5109 2.45395 15.0811 7.90693C15.0811 10.5065 15.0812 10.987 15.0811 16.2727V26.3637C15.5798 33.662 20.6006 36.2525 25.7045 36.2525H48.3144C55.912 36.2525 58.5388 31.3511 58.9212 26.3637V17.2338ZM48.3142 32.8277C55.0473 32.8277 56.0614 27.9732 56.0614 25.0805V11.581C56.0614 8.6883 55.0639 3.83382 48.3142 3.83382H25.7043C22.8115 3.83382 17.9571 4.83132 17.9571 11.581L17.9737 25.0805C17.9737 31.8136 22.8282 32.8277 25.7209 32.8277H48.3142Z" fill="#66F124"/>
    <path d="M74 42.2445C73.9682 38.6822 71.0547 35.82 67.4924 35.8518C64.5115 35.8784 61.9371 37.9438 61.2653 40.848L56.8264 41.7125H17.1925L12.7537 40.848C11.9931 37.3675 8.55524 35.1627 5.07481 35.9232C1.59438 36.6838 -0.610508 40.1217 0.150084 43.6021C0.66712 45.9678 2.46532 47.8448 4.80694 48.4624V60.8813C1.99462 61.6315 0.0330855 64.1717 0.0189543 67.0824V70.025C0.0189543 70.9431 0.763336 71.6875 1.68145 71.6875C2.59956 71.6875 3.34394 70.9431 3.34394 70.025V67.0657C3.34394 65.3396 4.74335 63.9402 6.46944 63.9402C8.19552 63.9402 9.59493 65.3396 9.59493 67.0657V70.025C9.59493 70.9431 10.3393 71.6875 11.2574 71.6875C12.1755 71.6875 12.9199 70.9431 12.9199 70.025V67.0657C12.9058 64.1551 10.9443 61.6148 8.13193 60.8646V48.4458C10.2439 47.8768 11.9222 46.2735 12.5874 44.1898L15.3638 44.7384V65.2536C15.3671 68.2613 16.0014 71.2346 17.2258 73.9817V74.1313C22.1341 85.0117 34.9334 89.8529 45.8136 84.9446C50.6153 82.7784 54.4607 78.9332 56.6269 74.1313L56.71 73.9485C57.9476 71.2155 58.5989 68.2536 58.6219 65.2536V44.7384L61.3983 44.1898C62.0635 46.2735 63.7418 47.8768 65.8538 48.4458V60.8646C63.0415 61.6148 61.0799 64.1551 61.0658 67.0657V70.025C61.0658 70.9431 61.8102 71.6875 62.7283 71.6875C63.6464 71.6875 64.3908 70.9431 64.3908 70.025V67.0657C64.3924 65.3396 65.7931 63.9415 67.5192 63.9432C69.243 63.9448 70.6401 65.3419 70.6418 67.0657V70.025C70.6418 70.9431 71.3861 71.6875 72.3043 71.6875C73.2224 71.6875 73.9668 70.9431 73.9668 70.025V67.0657C73.9526 64.1551 71.9911 61.6148 69.1788 60.8646V48.4458C72.0042 47.7081 73.9817 45.1644 74 42.2445ZM6.46944 45.37C4.74335 45.37 3.34394 43.9706 3.34394 42.2445C3.34394 40.5184 4.74335 39.119 6.46944 39.119C8.19552 39.119 9.59493 40.5184 9.59493 42.2445C9.59493 43.9706 8.19552 45.37 6.46944 45.37ZM37.0095 83.5575C30.1258 83.5575 24.9186 80.352 21.5649 75.0621H52.4541C49.1004 80.3518 43.8932 83.5575 37.0095 83.5575ZM55.2969 65.27C55.2888 67.487 54.8776 69.684 54.0833 71.7538H19.9024C19.1081 69.684 18.6969 67.487 18.6888 65.27V45.0375H55.2969V65.27ZM67.5668 45.3695C67.561 45.3695 67.5553 45.3698 67.5495 45.3698L67.5163 45.3199C65.7902 45.3199 64.3908 43.9205 64.3908 42.1944C64.3908 40.4683 65.7902 39.0689 67.5163 39.0689C69.2424 39.0689 70.6418 40.4683 70.6418 42.1944C70.6694 43.9205 69.2926 45.3419 67.5668 45.3695Z" fill="#66F124"/>
</svg>
