<svg width="87" height="87" viewBox="0 0 87 87" fill="none" xmlns="http://www.w3.org/2000/svg">
    <path d="M56.1873 72.4998H1.81249C0.811997 72.4998 0 71.6878 0 70.6873C0 69.6868 0.811997 68.8748 1.81249 68.8748H56.1873C57.1878 68.8748 57.9998 69.6868 57.9998 70.6873C57.9998 71.6878 57.1878 72.4998 56.1873 72.4998Z" fill="#66F124"/>
    <path d="M48.9373 86.9997H9.06247C4.06724 86.9997 0 82.9325 0 77.9372V9.06247C0 4.06724 4.06724 0 9.06247 0H48.9373C53.9326 0 57.9998 4.06724 57.9998 9.06247C57.9998 10.063 57.1878 10.875 56.1873 10.875C55.1868 10.875 54.3748 10.063 54.3748 9.06247C54.3748 6.0646 51.9352 3.62499 48.9373 3.62499H9.06247C6.0646 3.62499 3.62499 6.0646 3.62499 9.06247V77.9372C3.62499 80.9351 6.0646 83.3747 9.06247 83.3747H48.9373C51.9352 83.3747 54.3748 80.9351 54.3748 77.9372V67.0623C54.3748 66.0618 55.1868 65.2498 56.1873 65.2498C57.1878 65.2498 57.9998 66.0618 57.9998 67.0623V77.9372C57.9998 82.9325 53.9326 86.9997 48.9373 86.9997Z" fill="#66F124"/>
    <path d="M58.9351 50.1627C58.4711 50.1627 58.0071 49.985 57.6519 49.6334L44.6128 36.5943C43.9313 35.9128 43.9023 34.8144 44.5476 34.1003L55.2268 22.243C62.8175 13.4814 74.8525 7.44217 85.1547 7.25004C85.6441 7.23917 86.1226 7.43129 86.4706 7.77929C86.8186 8.12729 87.007 8.60579 86.9998 9.09516C86.8077 19.3974 80.7684 31.4323 71.9779 39.0412L60.1459 49.6987C59.8051 50.0104 59.3701 50.1627 58.9351 50.1627ZM48.3973 35.2495L59.004 45.8562L69.5817 36.3261C77.1072 29.812 82.4214 19.8614 83.2624 10.9874C74.3885 11.8284 64.4415 17.1426 57.9491 24.6427L48.3973 35.2495Z" fill="#66F124"/>
    <path d="M63.8143 58.7611C63.6511 58.7611 63.4844 58.7394 63.3213 58.6922C62.6905 58.5146 62.2048 58.0107 62.0489 57.3691L59.486 46.6754C59.254 45.7039 59.8558 44.7252 60.8273 44.4895C61.8169 44.2612 62.7811 44.8593 63.0131 45.8308L64.7133 52.9321C67.8634 48.0058 68.4905 41.7019 68.5557 38.0153C68.5739 37.0148 69.3641 36.2173 70.4009 36.2354C71.4014 36.2536 72.1989 37.0801 72.1807 38.0806C72.0285 46.6573 69.5127 53.813 65.0939 58.2319C64.7495 58.5762 64.2855 58.7611 63.8143 58.7611Z" fill="#66F124"/>
    <path d="M47.9985 34.8108C47.8571 34.8108 47.7157 34.7963 47.5744 34.7601L36.8807 32.1972C36.2427 32.045 35.7352 31.5628 35.5575 30.9285C35.3799 30.2977 35.5575 29.6199 36.0179 29.1559C40.4368 24.737 47.5925 22.2212 56.1692 22.069C57.1081 22.1343 57.9998 22.8484 58.0143 23.8489C58.0288 24.8494 57.235 25.6759 56.2345 25.694C52.5442 25.7592 46.244 26.3864 41.3176 29.5365L48.419 31.2366C49.3905 31.4686 49.9922 32.4473 49.7602 33.4225C49.5572 34.2526 48.8177 34.8108 47.9985 34.8108Z" fill="#66F124"/>
    <path d="M34.4375 61.6249C33.9627 61.6249 33.5023 61.44 33.1543 61.0956C32.683 60.6244 32.509 59.932 32.7012 59.294C33.2993 57.293 36.4095 47.1938 38.8455 44.7578C41.7781 41.8216 46.5523 41.8179 49.4957 44.7578C52.432 47.694 52.432 52.4718 49.4957 55.408C47.0634 57.8404 36.9605 60.9542 34.9595 61.5524C34.7855 61.5995 34.6115 61.6249 34.4375 61.6249ZM44.1706 46.1788C43.1701 46.1788 42.1696 46.5594 41.4084 47.3207C40.3789 48.3502 38.6099 52.8886 37.2252 57.0248C41.3613 55.64 45.9034 53.8674 46.9293 52.8415C48.4517 51.319 48.4517 48.8395 46.9293 47.3207C46.168 46.5594 45.1675 46.1788 44.1706 46.1788Z" fill="#66F124"/>
</svg>
