<svg width="98" height="99" viewBox="0 0 98 99" fill="none" xmlns="http://www.w3.org/2000/svg">
    <path d="M91.875 85.7537H6.125C2.74808 85.7537 0 83.0056 0 79.6287V22.462C0 19.0851 2.74808 16.337 6.125 16.337H22.4583C23.5853 16.337 24.5 17.2517 24.5 18.3787C24.5 19.5057 23.5853 20.4203 22.4583 20.4203H6.125C4.998 20.4203 4.08333 21.335 4.08333 22.462V79.6287C4.08333 80.7557 4.998 81.6703 6.125 81.6703H91.875C93.002 81.6703 93.9167 80.7557 93.9167 79.6287V22.462C93.9167 21.335 93.002 20.4203 91.875 20.4203H87.7917C86.6647 20.4203 85.75 19.5057 85.75 18.3787C85.75 17.2517 86.6647 16.337 87.7917 16.337H91.875C95.2519 16.337 98 19.0851 98 22.462V79.6287C98 83.0056 95.2519 85.7537 91.875 85.7537Z" fill="#66F124"/>
    <path d="M63.2916 98.0037H34.7083C33.8834 98.0037 33.1362 97.5055 32.8218 96.7419C32.5033 95.9783 32.6789 95.1004 33.2628 94.5165C38.6364 89.1428 38.7059 83.9407 38.7059 83.7202C38.7099 82.5973 39.6246 81.6703 40.7516 81.6703H57.1666C58.2895 81.6703 59.2042 82.5768 59.2083 83.6998C59.2124 83.957 59.3716 89.1551 64.7371 94.5165C65.321 95.1004 65.4966 95.9783 65.1781 96.7419C64.8637 97.5055 64.1164 98.0037 63.2916 98.0037ZM39.0815 93.9203H58.9143C56.6276 90.6496 55.7211 87.6443 55.3618 85.7537H42.5809C42.2339 87.6524 41.3519 90.6537 39.0815 93.9203ZM59.2083 83.712H59.2491H59.2083Z" fill="#66F124"/>
    <path d="M95.9583 73.5037H2.04167C0.914667 73.5037 0 72.589 0 71.462C0 70.335 0.914667 69.4203 2.04167 69.4203H95.9583C97.0853 69.4203 98 70.335 98 71.462C98 72.589 97.0853 73.5037 95.9583 73.5037Z" fill="#66F124"/>
    <path d="M52.0952 48.3422C51.5726 48.3422 51.0499 48.1421 50.6497 47.746L35.9661 33.0583C35.1984 32.2906 35.1657 31.0534 35.8926 30.2489L47.9221 16.8924C56.4685 7.02294 70.0251 0.220102 81.63 0.00368552C82.1853 -0.0330645 82.7202 0.207852 83.1122 0.599852C83.5042 0.991852 83.7206 1.52677 83.7084 2.0821C83.492 13.6869 76.6891 27.2436 66.7871 35.8145L53.4591 47.8195C53.0752 48.1707 52.5852 48.3422 52.0952 48.3422ZM40.225 31.5434L52.1728 43.4912L64.088 32.7561C72.565 25.4184 78.5511 14.2096 79.4985 4.2136C69.5025 5.16094 58.2978 11.1471 50.9846 19.5955L40.225 31.5434Z" fill="#66F124"/>
    <path d="M57.5914 58.0278C57.4077 58.0278 57.2199 58.0033 57.0361 57.9503C56.3256 57.7502 55.7784 57.1826 55.6029 56.4598L52.7159 44.414C52.4546 43.3197 53.1324 42.2172 54.2268 41.9517C55.3374 41.6945 56.4277 42.3682 56.689 43.4626L58.6041 51.4618C62.1525 45.9126 62.8589 38.8117 62.9324 34.6589C62.9529 33.5319 63.7818 32.5723 65.0109 32.654C66.1379 32.6703 67.0362 33.6054 67.0158 34.7283C66.8443 44.3895 64.0104 52.45 59.0329 57.4276C58.6449 57.8196 58.1223 58.0278 57.5914 58.0278Z" fill="#66F124"/>
    <path d="M39.7757 31.0493C39.6164 31.0493 39.4572 31.0329 39.2979 30.9921L27.2521 28.1052C26.5334 27.9337 25.9617 27.3906 25.7617 26.676C25.5616 25.9655 25.7617 25.2019 26.2802 24.6793C31.2578 19.7017 39.3183 16.8679 48.9795 16.6964C50.1596 16.7045 51.0375 17.5743 51.0579 18.7013C51.0783 19.8283 50.18 20.7593 49.053 20.7797C44.8962 20.8532 37.7993 21.5596 32.2501 25.108L40.2493 27.0231C41.3437 27.2844 42.0215 28.3869 41.7602 29.4854C41.5315 30.4204 40.6985 31.0493 39.7757 31.0493Z" fill="#66F124"/>
    <path d="M24.5003 61.2537C23.9654 61.2537 23.4468 61.0454 23.0548 60.6575C22.524 60.1267 22.328 59.3468 22.5444 58.6281C23.2181 56.3741 26.7216 44.9979 29.4656 42.2539C32.7691 38.9464 38.1468 38.9424 41.4625 42.2539C44.77 45.5614 44.77 50.9433 41.4625 54.2508C38.7226 56.9907 27.3423 60.4983 25.0883 61.172C24.8923 61.2251 24.6963 61.2537 24.5003 61.2537ZM35.4641 43.8546C34.3371 43.8546 33.2101 44.2834 32.3526 45.1409C31.1929 46.3005 29.2002 51.4129 27.6404 56.0719C32.2995 54.5121 37.4159 52.5154 38.5715 51.3598C40.2865 49.6448 40.2865 46.8518 38.5715 45.1409C37.714 44.2834 36.587 43.8546 35.4641 43.8546Z" fill="#66F124"/>
</svg>
