<svg width="60" height="60" viewBox="0 0 60 60" fill="none" xmlns="http://www.w3.org/2000/svg">
    <circle cx="30" cy="30" r="30" fill="#24242A"/>
    <path d="M42.7501 19.375V30C42.7501 33.5148 39.8898 36.375 36.3751 36.375H26.9295L22.2566 40.3785C22.6901 40.5273 23.1448 40.625 23.6251 40.625H33.857L40.9948 46.745C41.1925 46.9129 41.439 47 41.6876 47C41.8385 47 41.9915 46.9681 42.1317 46.9023C42.51 46.7301 42.7501 46.3519 42.7501 45.9375V40.625C45.094 40.625 47.0001 38.7189 47.0001 36.375V23.625C47.0001 21.2811 45.094 19.375 42.7501 19.375Z" fill="#F7FFF4"/>
    <path d="M36.375 13H17.25C14.9061 13 13 14.9061 13 17.25V30C13 32.3439 14.9061 34.25 17.25 34.25V39.5625C17.25 39.9769 17.4922 40.3551 17.8684 40.5273C18.0107 40.5931 18.1616 40.625 18.3125 40.625C18.5611 40.625 18.8076 40.5379 19.0031 40.37L26.1431 34.25H36.375C38.7189 34.25 40.625 32.3439 40.625 30V17.25C40.625 14.9061 38.7189 13 36.375 13ZM28.9375 25.75H20.4375C19.851 25.75 19.375 25.274 19.375 24.6875C19.375 24.101 19.851 23.625 20.4375 23.625H28.9375C29.524 23.625 30 24.101 30 24.6875C30 25.274 29.524 25.75 28.9375 25.75ZM33.1875 21.5H20.4375C19.851 21.5 19.375 21.024 19.375 20.4375C19.375 19.851 19.851 19.375 20.4375 19.375H33.1875C33.774 19.375 34.25 19.851 34.25 20.4375C34.25 21.024 33.774 21.5 33.1875 21.5Z" fill="#F7FFF4"/>
</svg>
