<svg width="21" height="21" viewBox="0 0 21 21" fill="none" xmlns="http://www.w3.org/2000/svg">
    <path d="M10.3443 0.852966H10.3394C4.97925 0.852966 0.620361 5.17967 0.620361 10.5C0.620361 12.6103 1.30573 14.5663 2.47109 16.1544L1.25955 19.7383L4.99626 18.5529C6.53347 19.5634 8.36719 20.1471 10.3443 20.1471C15.7045 20.1471 20.0634 15.8192 20.0634 10.5C20.0634 5.18088 15.7045 0.852966 10.3443 0.852966ZM16.001 14.4758C15.7665 15.133 14.8356 15.6781 14.0932 15.8373C13.5852 15.9446 12.9217 16.0302 10.6882 15.1113C7.8313 13.9368 5.9915 11.0559 5.84811 10.869C5.71079 10.6821 4.69368 9.34358 4.69368 7.95923C4.69368 6.57488 5.40213 5.90079 5.6877 5.61138C5.92223 5.37382 6.30988 5.26529 6.68173 5.26529C6.80203 5.26529 6.91018 5.27132 7.0074 5.27614C7.29297 5.2882 7.43636 5.30508 7.62471 5.75247C7.85924 6.3132 8.43038 7.69755 8.49843 7.83985C8.5677 7.98214 8.63697 8.17508 8.53975 8.362C8.44861 8.55494 8.36841 8.64055 8.22502 8.80455C8.08162 8.96855 7.94552 9.09397 7.80213 9.27003C7.67089 9.42317 7.52264 9.58717 7.6879 9.87055C7.85317 10.1479 8.42431 11.0728 9.26522 11.8156C10.3504 12.7743 11.2302 13.0806 11.5449 13.2108C11.7794 13.3073 12.0589 13.2844 12.2303 13.1035C12.4478 12.8708 12.7164 12.4849 12.9898 12.1051C13.1842 11.8325 13.4297 11.7988 13.6873 11.8952C13.9498 11.9857 15.3387 12.667 15.6243 12.8081C15.9099 12.9504 16.0982 13.0179 16.1675 13.1373C16.2355 13.2567 16.2355 13.8174 16.001 14.4758Z" fill="#F7FFF4"/>
</svg>
